<?xml version="1.0" encoding="utf-8"?>
<!-- Generator: Adobe Illustrator 24.0.0, SVG Export Plug-In . SVG Version: 6.00 Build 0)  -->
<svg version="1.1" id="Layer_2" xmlns="http://www.w3.org/2000/svg" xmlns:xlink="http://www.w3.org/1999/xlink" x="0px" y="0px"
	 viewBox="0 0 106.92 28.35" style="enable-background:new 0 0 106.92 28.35;" xml:space="preserve">
<g>
	<path style="fill:#A6CE39;" d="M84.37,5.02l15.7-4.89c0,0,3.64-0.73,5.25,1.16c1.6,1.89,1.51,3.72,1.51,3.72l-4.28,7.11l-0.78-6.87
		L84.37,5.02z"/>
	<path style="fill:#BCBEC0;" d="M92.7,25.91l-12.27-10.9c0,0-2.5-2.74-1.69-5.08c0.8-2.34,2.44-3.2,2.44-3.2l8.33,0l-5.53,4.19L92.7,25.91z"/>
	<path style="fill:#812990;" d="M106.92,8.41l-3.76,15.93c0,0-1.23,3.49-3.68,3.91c-2.45,0.41-3.99-0.61-3.99-0.61l-3.97-7.28l6.34,2.83
		L106.92,8.41z"/>
</g>
<g>
	<path id="XMLID_79_" style="fill:#A6CE39;" d="M3.12,17.54H0V8.41c0-0.71,0.13-1.38,0.4-2C0.67,5.78,1.04,5.23,1.5,4.77
		c0.46-0.46,1-0.82,1.63-1.09c0.63-0.27,1.29-0.4,2-0.4h12V6.4h-12c-0.56,0-1.03,0.2-1.42,0.59C3.32,7.38,3.12,7.85,3.12,8.41v2
		h14.01v3.12H3.12V17.54z"/>
	<path id="XMLID_76_" style="fill:#A6CE39;" d="M21.35,5.96h-3.12V4.14h3.12V5.96z M18.22,7.29h3.12v10.26h-3.12V7.29z"/>
	<path id="XMLID_74_" style="fill:#A6CE39;" d="M25.95,12.41c0,0.56,0.2,1.03,0.59,1.42c0.39,0.39,0.86,0.59,1.42,0.59H36
		c0.55,0,1.03-0.2,1.42-0.59c0.39-0.39,0.59-0.86,0.59-1.42c0-0.55-0.19-1.03-0.59-1.42c-0.39-0.39-0.86-0.58-1.42-0.58h-8.17V7.29
		H36c0.71,0,1.38,0.13,2,0.4c0.63,0.27,1.17,0.63,1.63,1.09c0.46,0.46,0.82,1,1.09,1.63c0.27,0.62,0.4,1.29,0.4,2
		c0,0.71-0.13,1.38-0.4,2c-0.27,0.62-0.63,1.17-1.09,1.63c-0.46,0.46-1,0.82-1.63,1.09c-0.62,0.27-1.29,0.4-2,0.4h-8.04
		c-0.71,0-1.38-0.13-2-0.4c-0.62-0.27-1.17-0.63-1.63-1.09c-0.46-0.46-0.82-1-1.09-1.63c-0.27-0.63-0.4-1.29-0.4-2V4.14h3.12V12.41z
		"/>
	<path id="XMLID_72_" style="fill:#A6CE39;" d="M41.81,17.54v-5.13c0-0.71,0.13-1.38,0.4-2c0.27-0.63,0.63-1.17,1.09-1.63
		c0.46-0.46,1-0.82,1.63-1.09c0.62-0.27,1.29-0.4,2-0.4h5.6v3.12h-5.6c-0.56,0-1.03,0.19-1.42,0.58c-0.39,0.39-0.59,0.86-0.59,1.42
		v5.13H41.81z"/>
	<path id="XMLID_69_" style="fill:#A6CE39;" d="M70.39,14.42v3.12H58.31c-0.71,0-1.38-0.13-2-0.4c-0.62-0.27-1.17-0.63-1.63-1.09
		c-0.46-0.46-0.82-1-1.09-1.63c-0.27-0.63-0.4-1.29-0.4-2c0-0.71,0.13-1.38,0.4-2c0.27-0.63,0.63-1.17,1.09-1.63
		c0.46-0.46,1-0.82,1.63-1.09c0.63-0.27,1.29-0.4,2-0.4h10.18c0.43,0,0.82,0.11,1.15,0.34c0.33,0.23,0.57,0.51,0.73,0.85
		c0.16,0.34,0.22,0.71,0.19,1.11c-0.03,0.4-0.18,0.76-0.46,1.09l-2.99,3.75H70.39z M58.31,10.33c-0.28,0-0.54,0.06-0.78,0.17
		c-0.24,0.11-0.46,0.26-0.64,0.46c-0.18,0.19-0.33,0.41-0.43,0.66c-0.1,0.25-0.16,0.52-0.16,0.79c0,0.56,0.2,1.03,0.59,1.42
		c0.39,0.39,0.86,0.59,1.42,0.59h4.95l3.25-4.09H58.31z"/>
	<path id="XMLID_67_" style="fill:#812990;" d="M12.24,26.54v1.81H2.97c-0.41,0-0.8-0.08-1.16-0.23c-0.36-0.16-0.67-0.37-0.94-0.63
		c-0.27-0.27-0.48-0.58-0.63-0.94c-0.16-0.36-0.23-0.75-0.23-1.16v-2.32c0-0.41,0.08-0.8,0.23-1.16c0.16-0.36,0.37-0.68,0.63-0.95
		c0.27-0.27,0.58-0.48,0.94-0.64c0.36-0.16,0.75-0.23,1.16-0.23l9.26,0.02v1.8H2.97c-0.32,0-0.59,0.11-0.82,0.34
		c-0.23,0.23-0.34,0.5-0.34,0.82v2.32c0,0.32,0.11,0.59,0.34,0.82c0.23,0.23,0.5,0.34,0.82,0.34H12.24z"/>
	<path id="XMLID_64_" style="fill:#812990;" d="M15.82,28.35c-0.41,0-0.8-0.08-1.16-0.23c-0.36-0.16-0.67-0.37-0.94-0.63
		c-0.27-0.27-0.48-0.58-0.63-0.94c-0.16-0.36-0.23-0.75-0.23-1.16c0-0.41,0.08-0.8,0.23-1.16c0.16-0.36,0.37-0.67,0.63-0.94
		c0.27-0.27,0.58-0.48,0.94-0.63c0.36-0.16,0.75-0.23,1.16-0.23h4.98c0.41,0,0.8,0.08,1.16,0.23c0.36,0.16,0.67,0.37,0.94,0.63
		c0.27,0.27,0.48,0.58,0.63,0.94c0.16,0.36,0.23,0.75,0.23,1.16c0,0.41-0.08,0.8-0.23,1.16c-0.16,0.36-0.37,0.67-0.63,0.94
		c-0.27,0.27-0.58,0.48-0.94,0.63c-0.36,0.16-0.75,0.23-1.16,0.23H15.82z M15.82,24.23c-0.32,0-0.59,0.11-0.82,0.34
		c-0.23,0.23-0.34,0.5-0.34,0.82c0,0.32,0.11,0.59,0.34,0.82c0.23,0.23,0.5,0.34,0.82,0.34h4.98c0.32,0,0.59-0.11,0.82-0.34
		c0.23-0.23,0.34-0.5,0.34-0.82c0-0.32-0.11-0.59-0.34-0.82c-0.23-0.23-0.5-0.34-0.82-0.34H15.82z"/>
	<path id="XMLID_62_" style="fill:#812990;" d="M27.4,22.42h4.02c0.4,0,0.78,0.08,1.14,0.23c0.36,0.16,0.68,0.37,0.95,0.63
		c0.27,0.27,0.48,0.58,0.64,0.94c0.16,0.36,0.23,0.75,0.23,1.16v2.96h-1.82v-2.96c0-0.32-0.11-0.59-0.33-0.82
		c-0.22-0.23-0.49-0.34-0.81-0.34H27.4c-0.32,0-0.59,0.11-0.82,0.34c-0.23,0.23-0.34,0.5-0.34,0.82v2.96h-1.8v-2.96
		c0-0.41,0.08-0.8,0.23-1.16c0.16-0.36,0.37-0.67,0.63-0.94c0.27-0.27,0.58-0.48,0.94-0.63C26.6,22.5,26.99,22.42,27.4,22.42z"/>
	<path id="XMLID_60_" style="fill:#812990;" d="M38.19,22.42h4.02c0.4,0,0.78,0.08,1.14,0.23c0.36,0.16,0.68,0.37,0.95,0.63
		c0.27,0.27,0.48,0.58,0.64,0.94c0.16,0.36,0.23,0.75,0.23,1.16v2.96h-1.82v-2.96c0-0.32-0.11-0.59-0.33-0.82
		c-0.22-0.23-0.49-0.34-0.81-0.34h-4.02c-0.32,0-0.59,0.11-0.82,0.34c-0.23,0.23-0.34,0.5-0.34,0.82v2.96h-1.8v-2.96
		c0-0.41,0.08-0.8,0.23-1.16c0.16-0.36,0.37-0.67,0.63-0.94c0.27-0.27,0.58-0.48,0.94-0.63C37.4,22.5,37.78,22.42,38.19,22.42z"/>
	<path id="XMLID_57_" style="fill:#812990;" d="M55.97,26.54v1.81h-6.98c-0.41,0-0.8-0.08-1.16-0.23c-0.36-0.16-0.67-0.37-0.94-0.63
		c-0.27-0.27-0.48-0.58-0.63-0.94c-0.16-0.36-0.23-0.75-0.23-1.16c0-0.41,0.08-0.8,0.23-1.16c0.16-0.36,0.37-0.67,0.63-0.94
		c0.27-0.27,0.58-0.48,0.94-0.63c0.36-0.16,0.75-0.23,1.16-0.23h5.88c0.25,0,0.47,0.07,0.66,0.2c0.19,0.13,0.33,0.29,0.42,0.49
		c0.09,0.2,0.13,0.41,0.11,0.64c-0.02,0.23-0.1,0.44-0.26,0.63l-1.73,2.17H55.97z M48.99,24.18c-0.16,0-0.31,0.03-0.45,0.1
		c-0.14,0.07-0.26,0.15-0.37,0.26c-0.11,0.11-0.19,0.24-0.25,0.38c-0.06,0.15-0.09,0.3-0.09,0.46c0,0.32,0.11,0.59,0.34,0.82
		c0.23,0.23,0.5,0.34,0.82,0.34h2.86l1.88-2.36H48.99z"/>
	<path id="XMLID_55_" style="fill:#812990;" d="M68,28.35l-3.22-3.22h-2.32l-3.22,3.22h-2.53l4.12-4.12l-4.17-4.15h2.53l3.26,3.26h2.32
		l3.26-3.26h2.53l-4.17,4.15l4.12,4.12H68z"/>
</g>
</svg>
